<?xml version="1.0" standalone="no"?>
<!DOCTYPE svg PUBLIC "-//W3C//DTD SVG 1.1//EN"
"http://www.w3.org/Graphics/SVG/1.1/DTD/svg11.dtd">

<svg width="430" height="238" view_box="0 0 430 238"
xmlns="http://www.w3.org/2000/svg"
xmlns:link="http://www.w3.org/1999/xlink">\n\n<desc>Généré par Mocodo 2.3.7 le Thu, 14 Jan 2021 05:18:55</desc>

<rect id="frame" x="0" y="0" width="430" height="238" fill="#f7f7f7" stroke="none" stroke-width="0"/>

<!-- Entity etudie -->
<g id="entity-etudie">
	<g id="frame-etudie">
		<rect x="41" y="18" width="68" height="25" fill="#f1b6da" stroke="#f1b6da" stroke-width="0"/>
		<rect x="41" y="43.0" width="68" height="59" fill="#fde0ef" stroke="#fde0ef" stroke-width="0"/>
		<rect x="41" y="18" width="68" height="84" fill="none" stroke="#de77ae" stroke-width="2"/>
		<line x1="41" y1="43" x2="109" y2="43" stroke="#de77ae" stroke-width="1"/>
	</g>
	<text x="56" y="35.7" fill="#000000" font-family="Verdana" font-size="12">etudie</text>
	<text x="46" y="60.8" fill="#000000" font-family="Verdana" font-size="12">#code_e</text>
	<line x1="46" y1="63" x2="100" y2="63" stroke="#000000" stroke-width="1"/>
	<text x="46" y="77.8" fill="#000000" font-family="Verdana" font-size="12">#code_m</text>
	<line x1="46" y1="80" x2="104" y2="80" stroke="#000000" stroke-width="1"/>
	<text x="46" y="94.8" fill="#000000" font-family="Verdana" font-size="12">note</text>
</g>

<!-- Entity enseignants -->
<g id="entity-enseignants">
	<g id="frame-enseignants">
		<rect x="305" y="127" width="84" height="25" fill="#f1b6da" stroke="#f1b6da" stroke-width="0"/>
		<rect x="305" y="152.0" width="84" height="77" fill="#fde0ef" stroke="#fde0ef" stroke-width="0"/>
		<rect x="305" y="127" width="84" height="102" fill="none" stroke="#de77ae" stroke-width="2"/>
		<line x1="305" y1="152" x2="389" y2="152" stroke="#de77ae" stroke-width="1"/>
	</g>
	<text x="310" y="144.7" fill="#000000" font-family="Verdana" font-size="12">enseignants</text>
	<text x="310" y="169.7" fill="#000000" font-family="Verdana" font-size="12">code_p</text>
	<line x1="310" y1="172" x2="354" y2="172" stroke="#000000" stroke-width="1"/>
	<text x="310" y="186.8" fill="#000000" font-family="Verdana" font-size="12">nom_p</text>
	<text x="310" y="203.8" fill="#000000" font-family="Verdana" font-size="12">grade</text>
	<text x="310" y="220.8" fill="#000000" font-family="Verdana" font-size="12">embauche</text>
</g>

<!-- Entity matieres -->
<g id="entity-matieres">
	<g id="frame-matieres">
		<rect x="43" y="127" width="64" height="25" fill="#f1b6da" stroke="#f1b6da" stroke-width="0"/>
		<rect x="43" y="152.0" width="64" height="77" fill="#fde0ef" stroke="#fde0ef" stroke-width="0"/>
		<rect x="43" y="127" width="64" height="102" fill="none" stroke="#de77ae" stroke-width="2"/>
		<line x1="43" y1="152" x2="107" y2="152" stroke="#de77ae" stroke-width="1"/>
	</g>
	<text x="48" y="144.7" fill="#000000" font-family="Verdana" font-size="12">matieres</text>
	<text x="48" y="169.7" fill="#000000" font-family="Verdana" font-size="12">code_m</text>
	<line x1="48" y1="172" x2="96" y2="172" stroke="#000000" stroke-width="1"/>
	<text x="48" y="186.8" fill="#000000" font-family="Verdana" font-size="12">nom_m</text>
	<text x="48" y="203.8" fill="#000000" font-family="Verdana" font-size="12">coeff</text>
	<text x="48" y="220.8" fill="#000000" font-family="Verdana" font-size="12">#code_p</text>
</g>

<!-- Entity etudiants -->
<g id="entity-etudiants">
	<g id="frame-etudiants">
		<rect x="173" y="9" width="68" height="25" fill="#f1b6da" stroke="#f1b6da" stroke-width="0"/>
		<rect x="173" y="34.0" width="68" height="77" fill="#fde0ef" stroke="#fde0ef" stroke-width="0"/>
		<rect x="173" y="9" width="68" height="102" fill="none" stroke="#de77ae" stroke-width="2"/>
		<line x1="173" y1="34" x2="241" y2="34" stroke="#de77ae" stroke-width="1"/>
	</g>
	<text x="178" y="26.7" fill="#000000" font-family="Verdana" font-size="12">etudiants</text>
	<text x="178" y="51.7" fill="#000000" font-family="Verdana" font-size="12">code_e</text>
	<line x1="178" y1="54" x2="222" y2="54" stroke="#000000" stroke-width="1"/>
	<text x="178" y="68.8" fill="#000000" font-family="Verdana" font-size="12">nom_e</text>
	<text x="178" y="85.8" fill="#000000" font-family="Verdana" font-size="12">ddn</text>
	<text x="178" y="102.8" fill="#000000" font-family="Verdana" font-size="12">sexe</text>
</g>

<!-- Link from "code_e" (etudie) to "code_e" (etudiants) -->
<path d="M109 56.5 C 141.0 52.0 130.333333333 47.5 173 47.5" fill="none" stroke="#7fbc41" stroke-width="2"/>
<path d="M 173 47.5 L 161.0 53.5 L 165.0 47.5 L 161.0 41.5 Z" fill="#7fbc41" stroke-width="0"/>
<circle cx="109" cy="56.5" r="2" stroke="#7fbc41" stroke-width="2" fill="#7fbc41"/>

<!-- Link from "code_m" (etudie) to "code_m" (matieres) -->
<path d="M41 73.5 C -13 119.5 -11 165.5 43 165.5" fill="none" stroke="#7fbc41" stroke-width="2"/>
<path d="M 43 165.5 L 31.0 171.5 L 35.0 165.5 L 31.0 159.5 Z" fill="#7fbc41" stroke-width="0"/>
<circle cx="41" cy="73.5" r="2" stroke="#7fbc41" stroke-width="2" fill="#7fbc41"/>

<!-- Link from "code_p" (matieres) to "code_p" (enseignants) -->
<path d="M107 216.5 C 206.0 191.0 173.0 165.5 305 165.5" fill="none" stroke="#7fbc41" stroke-width="2"/>
<path d="M 305 165.5 L 293.0 171.5 L 297.0 165.5 L 293.0 159.5 Z" fill="#7fbc41" stroke-width="0"/>
<circle cx="107" cy="216.5" r="2" stroke="#7fbc41" stroke-width="2" fill="#7fbc41"/>
</svg>