<?xml version="1.0" standalone="no"?>
<!DOCTYPE svg PUBLIC "-//W3C//DTD SVG 1.1//EN"
"http://www.w3.org/Graphics/SVG/1.1/DTD/svg11.dtd">

<svg width="300" height="221" view_box="0 0 300 221"
xmlns="http://www.w3.org/2000/svg"
xmlns:link="http://www.w3.org/1999/xlink">\n\n<desc>Généré par Mocodo 2.3.7 le Thu, 14 Jan 2021 05:23:25</desc>

<rect id="frame" x="0" y="0" width="300" height="221" fill="#f7f7f7" stroke="none" stroke-width="0"/>

<!-- Association etudie -->
<line x1="140" y1="60" x2="41" y2="60" stroke="#7fbc41" stroke-width="2"/>
<text x="79" y="77.0" fill="#c51b7d" font-family="Verdana" font-size="12">1,N</text>
<line x1="41" y1="161" x2="41" y2="60" stroke="#7fbc41" stroke-width="2"/>
<text x="46.0" y="111" fill="#c51b7d" font-family="Verdana" font-size="12">0,N</text>
<g id="association-etudie">
	<path d="M 53 35 a 14 14 90 0 1 14 14 V 60 h -52 V 49 a 14 14 90 0 1 14 -14" fill="#b8e186" stroke="#b8e186" stroke-width="0"/>
	<path d="M 67 60.0 v 11 a 14 14 90 0 1 -14 14 H 29 a 14 14 90 0 1 -14 -14 V 60.0 H 52" fill="#e6f5d0" stroke="#e6f5d0" stroke-width="0"/>
	<rect x="15" y="35" width="52" height="50" fill="none" rx="14" stroke="#7fbc41" stroke-width="2"/>
	<line x1="15" y1="60" x2="67" y2="60" stroke="#7fbc41" stroke-width="1"/>
	<text x="22" y="52.7" fill="#000000" font-family="Verdana" font-size="12">etudie</text>
	<text x="22" y="77.8" fill="#000000" font-family="Verdana" font-size="12">note</text>
</g>

<!-- Association enseigne -->
<line x1="249" y1="161" x2="140" y2="161" stroke="#7fbc41" stroke-width="2"/>
<text x="180" y="178.0" fill="#c51b7d" font-family="Verdana" font-size="12">1,N</text>
<line x1="41" y1="161" x2="140" y2="161" stroke="#7fbc41" stroke-width="2"/>
<text x="78" y="178.0" fill="#c51b7d" font-family="Verdana" font-size="12">1,1</text>
<g id="association-enseigne">
	<path d="M 161 136 a 14 14 90 0 1 14 14 V 161 h -70 V 150 a 14 14 90 0 1 14 -14" fill="#b8e186" stroke="#b8e186" stroke-width="0"/>
	<path d="M 175 161.0 v 11 a 14 14 90 0 1 -14 14 H 119 a 14 14 90 0 1 -14 -14 V 161.0 H 70" fill="#e6f5d0" stroke="#e6f5d0" stroke-width="0"/>
	<rect x="105" y="136" width="70" height="50" fill="none" rx="14" stroke="#7fbc41" stroke-width="2"/>
	<line x1="105" y1="161" x2="175" y2="161" stroke="#7fbc41" stroke-width="1"/>
	<text x="112" y="153.7" fill="#000000" font-family="Verdana" font-size="12">enseigne</text>
</g>

<!-- Entity enseignants -->
<g id="entity-enseignants">
	<g id="frame-enseignants">
		<rect x="207" y="110" width="84" height="25" fill="#f1b6da" stroke="#f1b6da" stroke-width="0"/>
		<rect x="207" y="135.0" width="84" height="77" fill="#fde0ef" stroke="#fde0ef" stroke-width="0"/>
		<rect x="207" y="110" width="84" height="102" fill="none" stroke="#de77ae" stroke-width="2"/>
		<line x1="207" y1="135" x2="291" y2="135" stroke="#de77ae" stroke-width="1"/>
	</g>
	<text x="212" y="127.7" fill="#000000" font-family="Verdana" font-size="12">enseignants</text>
	<text x="212" y="152.7" fill="#000000" font-family="Verdana" font-size="12">code_p</text>
	<line x1="212" y1="155" x2="256" y2="155" stroke="#000000" stroke-width="1"/>
	<text x="212" y="169.8" fill="#000000" font-family="Verdana" font-size="12">nom_p</text>
	<text x="212" y="186.8" fill="#000000" font-family="Verdana" font-size="12">grade</text>
	<text x="212" y="203.8" fill="#000000" font-family="Verdana" font-size="12">embauche</text>
</g>

<!-- Entity matieres -->
<g id="entity-matieres">
	<g id="frame-matieres">
		<rect x="9" y="119" width="64" height="25" fill="#f1b6da" stroke="#f1b6da" stroke-width="0"/>
		<rect x="9" y="144.0" width="64" height="59" fill="#fde0ef" stroke="#fde0ef" stroke-width="0"/>
		<rect x="9" y="119" width="64" height="84" fill="none" stroke="#de77ae" stroke-width="2"/>
		<line x1="9" y1="144" x2="73" y2="144" stroke="#de77ae" stroke-width="1"/>
	</g>
	<text x="14" y="136.7" fill="#000000" font-family="Verdana" font-size="12">matieres</text>
	<text x="14" y="161.8" fill="#000000" font-family="Verdana" font-size="12">code_m</text>
	<line x1="14" y1="164" x2="62" y2="164" stroke="#000000" stroke-width="1"/>
	<text x="14" y="178.8" fill="#000000" font-family="Verdana" font-size="12">nom_m</text>
	<text x="14" y="195.8" fill="#000000" font-family="Verdana" font-size="12">coeff</text>
</g>

<!-- Entity etudiants -->
<g id="entity-etudiants">
	<g id="frame-etudiants">
		<rect x="106" y="9" width="68" height="25" fill="#f1b6da" stroke="#f1b6da" stroke-width="0"/>
		<rect x="106" y="34.0" width="68" height="77" fill="#fde0ef" stroke="#fde0ef" stroke-width="0"/>
		<rect x="106" y="9" width="68" height="102" fill="none" stroke="#de77ae" stroke-width="2"/>
		<line x1="106" y1="34" x2="174" y2="34" stroke="#de77ae" stroke-width="1"/>
	</g>
	<text x="111" y="26.7" fill="#000000" font-family="Verdana" font-size="12">etudiants</text>
	<text x="111" y="51.7" fill="#000000" font-family="Verdana" font-size="12">code_e</text>
	<line x1="111" y1="54" x2="155" y2="54" stroke="#000000" stroke-width="1"/>
	<text x="111" y="68.8" fill="#000000" font-family="Verdana" font-size="12">nom_e</text>
	<text x="111" y="85.8" fill="#000000" font-family="Verdana" font-size="12">ddn</text>
	<text x="111" y="102.8" fill="#000000" font-family="Verdana" font-size="12">sexe</text>
</g>
</svg>